g material_0\nusemtl material_0\nv -1.33516 14.4279 1.34397
vt 0.0625 1
v -1.31454 14.4275 1.81826
vt 0.0625 0.984375
v -0.840255 14.4257 1.79763
vt 0.046875 0.984375
v -0.860883 14.4261 1.32334
vt 0.046875 1
v -1.31816 13.4781 1.81759
vt 0.0625 0.953125
v -0.843881 13.4763 1.79696
vt 0.046875 0.953125
v -0.840255 14.4257 1.79763
vt 0.046875 0.984375
v -1.31454 14.4275 1.81826
vt 0.0625 0.984375
v -1.31816 13.4781 1.81759
vt 0.0625 0.984375
v -1.33879 13.4785 1.34331
vt 0.0625 1
v -0.864508 13.4767 1.32268
vt 0.078125 1
v -0.843881 13.4763 1.79696
vt 0.078125 0.984375
v -0.864508 13.4767 1.32268
vt 0.09375 0.953125
v -1.33879 13.4785 1.34331
vt 0.078125 0.953125
v -1.33516 14.4279 1.34397
vt 0.078125 0.984375
v -0.860883 14.4261 1.32334
vt 0.09375 0.984375
v -0.860883 14.4261 1.32334
vt 0.03125 0.984375
v -0.840255 14.4257 1.79763
vt 0.046875 0.984375
v -0.843881 13.4763 1.79696
vt 0.046875 0.953125
v -0.864508 13.4767 1.32268
vt 0.03125 0.953125
v -1.31454 14.4275 1.81826
vt 0.0625 0.984375
v -1.33516 14.4279 1.34397
vt 0.078125 0.984375
v -1.33879 13.4785 1.34331
vt 0.078125 0.953125
v -1.31816 13.4781 1.81759
vt 0.0625 0.953125
v -6.54655e-08 6.75 -1
vt 0.1875 0.6875
v 2 6.75 -1
vt 0.25 0.6875
v 2 -4.29665e-06 -0.999987
vt 0.25 0.5
v -2.05725e-07 -4.25509e-06 -0.999987
vt 0.1875 0.5
v 1.07566e-07 6.75 1
vt 0.125 0.6875
v -6.54655e-08 6.75 -1
vt 0.1875 0.6875
v -2.05725e-07 -4.25509e-06 -0.999987
vt 0.1875 0.5
v -3.26937e-08 -5.13279e-07 1.00001
vt 0.125 0.5
v 2 6.75 1
vt 0.0625 0.6875
v 1.07566e-07 6.75 1
vt 0.125 0.6875
v -3.26937e-08 -5.13279e-07 1.00001
vt 0.125 0.5
v 2 -5.54838e-07 1.00001
vt 0.0625 0.5
v 2 6.75 -1
vt 0 0.6875
v 2 6.75 1
vt 0.0625 0.6875
v 2 -5.54838e-07 1.00001
vt 0.0625 0.5
v 2 -4.29665e-06 -0.999987
vt 0 0.5
v -3.26937e-08 -5.13279e-07 1.00001
vt 0.1875 0.6875
v -2.05725e-07 -4.25509e-06 -0.999987
vt 0.1875 0.75
v 2 -4.29665e-06 -0.999987
vt 0.125 0.75
v 2 -5.54838e-07 1.00001
vt 0.125 0.6875
v 2 6.75 1
vt 0.125 0.6875
v 2 6.75 -1
vt 0.125 0.75
v -6.54655e-08 6.75 -1
vt 0.0625 0.75
v 1.07566e-07 6.75 1
vt 0.0625 0.6875
v -6.54654e-08 6.75 -1
vt 0.0625 0.75
v -2 6.75 -1
vt 0.125 0.75
v -2 6.75 1
vt 0.125 0.6875
v 1.07566e-07 6.75 1
vt 0.0625 0.6875
v -2 -4.21353e-06 -0.999987
vt 0.125 0.75
v -2.05725e-07 -4.25509e-06 -0.999987
vt 0.1875 0.75
v -3.26937e-08 -5.13279e-07 1.00001
vt 0.1875 0.6875
v -2 -4.7172e-07 1.00001
vt 0.125 0.6875
v -2 -4.21353e-06 -0.999987
vt 0.25 0.5
v -2 6.75 -1
vt 0.25 0.6875
v -6.54654e-08 6.75 -1
vt 0.1875 0.6875
v -2.05725e-07 -4.25509e-06 -0.999987
vt 0.1875 0.5
v -3.26937e-08 -5.13279e-07 1.00001
vt 0.125 0.5
v 1.07566e-07 6.75 1
vt 0.125 0.6875
v -2 6.75 1
vt 0.0625 0.6875
v -2 -4.7172e-07 1.00001
vt 0.0625 0.5
v -2.05725e-07 -4.25509e-06 -0.999987
vt 0.1875 0.5
v -6.54654e-08 6.75 -1
vt 0.1875 0.6875
v 1.07566e-07 6.75 1
vt 0.125 0.6875
v -3.26937e-08 -5.13279e-07 1.00001
vt 0.125 0.5
v -2 -4.7172e-07 1.00001
vt 0.0625 0.5
v -2 6.75 1
vt 0.0625 0.6875
v -2 6.75 -1
vt 0 0.6875
v -2 -4.21353e-06 -0.999987
vt 0 0.5
v -0.846635 13.4697 1.79708
vt 0.5625 0.90625
v 1.05049 13.4625 1.71456
vt 0.5 0.90625
v 1.05774 15.3614 1.71589
vt 0.5 0.96875
v -0.839384 15.3686 1.7984
vt 0.5625 0.96875
v -0.860012 15.369 1.32412
vt 0.5625 0.984375
v -0.839384 15.3686 1.7984
vt 0.5625 0.96875
v 1.05774 15.3614 1.71589
vt 0.5 0.96875
v 1.03711 15.3618 1.2416
vt 0.5 0.984375
v 1.03711 15.3618 1.2416
vt 0.484375 0.96875
v 1.05774 15.3614 1.71589
vt 0.5 0.96875
v 1.05049 13.4625 1.71456
vt 0.5 0.90625
v 1.02986 13.4629 1.24028
vt 0.484375 0.90625
v -0.867263 13.4701 1.32279
vt 0.578125 0.90625
v -0.846635 13.4697 1.79708
vt 0.5625 0.90625
v -0.839384 15.3686 1.7984
vt 0.5625 0.96875
v -0.860012 15.369 1.32412
vt 0.578125 0.96875
v 1.02986 13.4629 1.24028
vt 0.625 0.984375
v 1.05049 13.4625 1.71456
vt 0.625 0.96875
v -0.846635 13.4697 1.79708
vt 0.5625 0.96875
v -0.867263 13.4701 1.32279
vt 0.5625 0.984375
v -0.860012 15.369 1.32412
vt 0.578125 0.96875
v 1.03711 15.3618 1.2416
vt 0.640625 0.96875
v 1.02986 13.4629 1.24028
vt 0.640625 0.90625
v -0.867263 13.4701 1.32279
vt 0.578125 0.90625
v -2 6.66284 -0.996194
vt 0.4375 0.75
v 2 6.66284 -0.996194
vt 0.5625 0.75
v 2 6.83716 0.996195
vt 0.5625 0.6875
v -2 6.83716 0.996195
vt 0.4375 0.6875
v -2 6.66284 -0.996194
vt 0.5 0.5
v -2 13.3872 -1.5845
vt 0.5 0.6875
v 2 13.3872 -1.5845
vt 0.625 0.6875
v 2 6.66284 -0.996194
vt 0.625 0.5
v -2 6.83716 0.996195
vt 0.4375 0.5
v -2 13.5615 0.407894
vt 0.4375 0.6875
v -2 13.3872 -1.5845
vt 0.5 0.6875
v -2 6.66284 -0.996194
vt 0.5 0.5
v 2 6.83716 0.996195
vt 0.3125 0.5
v 2 13.5615 0.407894
vt 0.3125 0.6875
v -2 13.5615 0.407894
vt 0.4375 0.6875
v -2 6.83716 0.996195
vt 0.4375 0.5
v 2 6.83716 0.996195
vt 0.3125 0.5
v 2 6.66284 -0.996194
vt 0.25 0.5
v 2 13.3872 -1.5845
vt 0.25 0.6875
v 2 13.5615 0.407894
vt 0.3125 0.6875
v -2 13.5615 0.407894
vt 0.4375 0.6875
v 2 13.5615 0.407894
vt 0.3125 0.6875
v 2 13.3872 -1.5845
vt 0.3125 0.75
v -2 13.3872 -1.5845
vt 0.4375 0.75
v -4.51759 6.8422 0.49672
vt 0.6875 0.5
v -3.93698 13.5671 0.466421
vt 0.6875 0.6875
v -3.88284 13.5534 -1.5328
vt 0.625 0.6875
v -4.46346 6.82851 -1.5025
vt 0.625 0.5
v -3.93698 13.5671 0.466421
vt 0.6875 0.6875
v -1.94512 13.3954 0.521532
vt 0.75 0.6875
v -1.89099 13.3817 -1.47769
vt 0.75 0.75
v -3.88284 13.5534 -1.5328
vt 0.6875 0.75
v -3.93698 13.5671 0.466421
vt 0.6875 0.6875
v -4.51759 6.8422 0.49672
vt 0.6875 0.5
v -2.52574 6.67047 0.551831
vt 0.75 0.5
v -1.94512 13.3954 0.521532
vt 0.75 0.6875
v -2.52574 6.67047 0.551831
vt 0.75 0.6875
v -4.51759 6.8422 0.49672
vt 0.8125 0.6875
v -4.46346 6.82851 -1.5025
vt 0.8125 0.75
v -2.47161 6.65679 -1.44739
vt 0.75 0.75
v -4.46346 6.82851 -1.5025
vt 0.875 0.5
v -3.88284 13.5534 -1.5328
vt 0.875 0.6875
v -1.89099 13.3817 -1.47769
vt 0.8125 0.6875
v -2.47161 6.65679 -1.44739
vt 0.8125 0.5
v -2.47161 6.65679 -1.44739
vt 0.8125 0.5
v -1.89099 13.3817 -1.47769
vt 0.8125 0.6875
v -1.94512 13.3954 0.521532
vt 0.75 0.6875
v -2.52574 6.67047 0.551831
vt 0.75 0.5
v -4.13301 14.6876 -1.3813
vt 0.859375 0.765625
v -4.0505 14.6859 0.515843
vt 0.796875 0.765625
v -2.36725 16.358 0.444081
vt 0.796875 0.84375
v -2.44976 16.3596 -1.45306
vt 0.859375 0.84375
v -3.79893 14.3506 -1.39612
vt 0.875 0.765625
v -4.13301 14.6876 -1.3813
vt 0.859375 0.765625
v -2.44976 16.3596 -1.45306
vt 0.859375 0.84375
v -2.11568 16.0227 -1.46788
vt 0.875 0.84375
v -4.0505 14.6859 0.515843
vt 0.953125 0.765625
v -3.71642 14.349 0.501022
vt 0.9375 0.765625
v -2.03317 16.021 0.42926
vt 0.9375 0.84375
v -2.36725 16.358 0.444081
vt 0.953125 0.84375
v -2.11568 16.0227 -1.46788
vt 0.875 0.84375
v -2.03317 16.021 0.42926
vt 0.9375 0.84375
v -3.71642 14.349 0.501022
vt 0.9375 0.765625
v -3.79893 14.3506 -1.39612
vt 0.875 0.765625
v -2.44976 16.3596 -1.45306
vt 0.859375 0.84375
v -2.36725 16.358 0.444081
vt 0.859375 0.90625
v -2.03317 16.021 0.42926
vt 0.875 0.90625
v -2.11568 16.0227 -1.46788
vt 0.875 0.84375
v -3.79893 14.3506 -1.39612
vt 0.875 0.84375
v -3.71642 14.349 0.501022
vt 0.875 0.90625
v -4.0505 14.6859 0.515843
vt 0.890625 0.90625
v -4.13301 14.6876 -1.3813
vt 0.890625 0.84375
v -2.28997 13.4671 1.38858
vt 0.28125 0.75
v 2.45284 13.4492 1.18229
vt 0.125 0.75
v 2.46735 17.247 1.18495
vt 0.125 0.875
v -2.27547 17.265 1.39124
vt 0.28125 0.875
v -2.44049 17.2682 -2.40304
vt 0.28125 1
v -2.27547 17.265 1.39124
vt 0.28125 0.875
v 2.46735 17.247 1.18495
vt 0.125 0.875
v 2.30233 17.2503 -2.60933
vt 0.125 1
v 2.30233 17.2503 -2.60933
vt 0 0.875
v 2.46735 17.247 1.18495
vt 0.125 0.875
v 2.45284 13.4492 1.18229
vt 0.125 0.75
v 2.28782 13.4524 -2.61198
vt 0 0.75
v -2.45499 13.4704 -2.40569
vt 0.40625 0.75
v -2.28997 13.4671 1.38858
vt 0.28125 0.75
v -2.27547 17.265 1.39124
vt 0.28125 0.875
v -2.44049 17.2682 -2.40304
vt 0.40625 0.875
v 2.28782 13.4524 -2.61198
vt 0.4375 1
v 2.45284 13.4492 1.18229
vt 0.4375 0.875
v -2.28997 13.4671 1.38858
vt 0.28125 0.875
v -2.45499 13.4704 -2.40569
vt 0.28125 1
v -2.44049 17.2682 -2.40304
vt 0.40625 0.875
v 2.30233 17.2503 -2.60933
vt 0.5625 0.875
v 2.28782 13.4524 -2.61198
vt 0.5625 0.75
v -2.45499 13.4704 -2.40569
vt 0.40625 0.75
v 1.03078 14.419 1.24106
vt 0.0625 0.9375
v 1.05141 14.4186 1.71535
vt 0.0625 0.921875
v 1.52569 14.4168 1.69472
vt 0.046875 0.921875
v 1.50506 14.4172 1.22043
vt 0.046875 0.9375
v 1.50506 14.4172 1.22043
vt 0.03125 0.921875
v 1.52569 14.4168 1.69472
vt 0.046875 0.921875
v 1.52207 13.4673 1.69406
vt 0.046875 0.890625
v 1.50144 13.4677 1.21977
vt 0.03125 0.890625
v 1.50144 13.4677 1.21977
vt 0.09375 0.890625
v 1.02716 13.4695 1.2404
vt 0.078125 0.890625
v 1.03078 14.419 1.24106
vt 0.078125 0.921875
v 1.50506 14.4172 1.22043
vt 0.09375 0.921875
v 1.04779 13.4691 1.71469
vt 0.0625 0.890625
v 1.52207 13.4673 1.69406
vt 0.046875 0.890625
v 1.52569 14.4168 1.69472
vt 0.046875 0.921875
v 1.05141 14.4186 1.71535
vt 0.0625 0.921875
v 1.50144 13.4677 1.21977
vt 0.078125 0.9375
v 1.52207 13.4673 1.69406
vt 0.078125 0.921875
v 1.04779 13.4691 1.71469
vt 0.0625 0.921875
v 1.02716 13.4695 1.2404
vt 0.0625 0.9375
v 1.05141 14.4186 1.71535
vt 0.0625 0.921875
v 1.03078 14.419 1.24106
vt 0.078125 0.921875
v 1.02716 13.4695 1.2404
vt 0.078125 0.890625
v 1.04779 13.4691 1.71469
vt 0.0625 0.890625
v 4.46346 6.82851 -1.5025
vt 0.875 0.5
v 2.47161 6.65679 -1.44739
vt 0.8125 0.5
v 1.89099 13.3817 -1.47769
vt 0.8125 0.6875
v 3.88284 13.5534 -1.5328
vt 0.875 0.6875
v 4.46346 6.82851 -1.5025
vt 0.8125 0.75
v 4.51759 6.8422 0.496719
vt 0.8125 0.6875
v 2.52574 6.67047 0.551831
vt 0.75 0.6875
v 2.47161 6.65679 -1.44739
vt 0.75 0.75
v 3.93698 13.5671 0.46642
vt 0.6875 0.6875
v 1.94512 13.3954 0.521532
vt 0.75 0.6875
v 2.52574 6.67047 0.551831
vt 0.75 0.5
v 4.51759 6.8422 0.496719
vt 0.6875 0.5
v 3.93698 13.5671 0.46642
vt 0.6875 0.6875
v 3.88284 13.5534 -1.5328
vt 0.6875 0.75
v 1.89099 13.3817 -1.47769
vt 0.75 0.75
v 1.94512 13.3954 0.521532
vt 0.75 0.6875
v 1.94512 13.3954 0.521532
vt 0.75 0.6875
v 1.89099 13.3817 -1.47769
vt 0.8125 0.6875
v 2.47161 6.65679 -1.44739
vt 0.8125 0.5
v 2.52574 6.67047 0.551831
vt 0.75 0.5
v 4.51759 6.8422 0.496719
vt 0.6875 0.5
v 4.46346 6.82851 -1.5025
vt 0.625 0.5
v 3.88284 13.5534 -1.5328
vt 0.625 0.6875
v 3.93698 13.5671 0.46642
vt 0.6875 0.6875
v 4.05761 14.6565 -1.73755
vt 0.703125 0.90625
v 4.14012 14.6549 0.15959
vt 0.703125 0.84375
v 3.80347 14.3205 0.173942
vt 0.6875 0.84375
v 3.72096 14.3221 -1.7232
vt 0.6875 0.90625
v 2.05053 16.0069 -1.64909
vt 0.75 0.84375
v 2.38718 16.3413 -1.66344
vt 0.765625 0.84375
v 4.05761 14.6565 -1.73755
vt 0.765625 0.765625
v 3.72096 14.3221 -1.7232
vt 0.75 0.765625
v 3.72096 14.3221 -1.7232
vt 0.75 0.765625
v 3.80347 14.3205 0.173942
vt 0.6875 0.765625
v 2.13304 16.0052 0.248049
vt 0.6875 0.84375
v 2.05053 16.0069 -1.64909
vt 0.75 0.84375
v 2.05053 16.0069 -1.64909
vt 0.6875 0.90625
v 2.13304 16.0052 0.248049
vt 0.6875 0.84375
v 2.46969 16.3397 0.233697
vt 0.671875 0.84375
v 2.38718 16.3413 -1.66344
vt 0.671875 0.90625
v 2.46969 16.3397 0.233697
vt 0.671875 0.84375
v 2.13304 16.0052 0.248049
vt 0.6875 0.84375
v 3.80347 14.3205 0.173942
vt 0.6875 0.765625
v 4.14012 14.6549 0.15959
vt 0.671875 0.765625
v 4.14012 14.6549 0.15959
vt 0.671875 0.765625
v 4.05761 14.6565 -1.73755
vt 0.609375 0.765625
v 2.38718 16.3413 -1.66344
vt 0.609375 0.84375
v 2.46969 16.3397 0.233697
vt 0.671875 0.84375
f 1/1 2/2 3/3
f 4/4 1/1 3/3
f 5/5 6/6 7/7
f 8/8 5/5 7/7
f 9/9 10/10 11/11
f 12/12 9/9 11/11
f 13/13 14/14 15/15
f 16/16 13/13 15/15
f 17/17 18/18 19/19
f 20/20 17/17 19/19
f 21/21 22/22 23/23
f 24/24 21/21 23/23
f 25/25 26/26 27/27
f 28/28 25/25 27/27
f 29/29 30/30 31/31
f 32/32 29/29 31/31
f 33/33 34/34 35/35
f 36/36 33/33 35/35
f 37/37 38/38 39/39
f 40/40 37/37 39/39
f 41/41 42/42 43/43
f 44/44 41/41 43/43
f 45/45 46/46 47/47
f 48/48 45/45 47/47
f 49/49 50/50 51/51
f 52/52 49/49 51/51
f 53/53 54/54 55/55
f 56/56 53/53 55/55
f 57/57 58/58 59/59
f 60/60 57/57 59/59
f 61/61 62/62 63/63
f 64/64 61/61 63/63
f 65/65 66/66 67/67
f 68/68 65/65 67/67
f 69/69 70/70 71/71
f 72/72 69/69 71/71
f 73/73 74/74 75/75
f 76/76 73/73 75/75
f 77/77 78/78 79/79
f 80/80 77/77 79/79
f 81/81 82/82 83/83
f 84/84 81/81 83/83
f 85/85 86/86 87/87
f 88/88 85/85 87/87
f 89/89 90/90 91/91
f 92/92 89/89 91/91
f 93/93 94/94 95/95
f 96/96 93/93 95/95
f 97/97 98/98 99/99
f 100/100 97/97 99/99
f 101/101 102/102 103/103
f 104/104 101/101 103/103
f 105/105 106/106 107/107
f 108/108 105/105 107/107
f 109/109 110/110 111/111
f 112/112 109/109 111/111
f 113/113 114/114 115/115
f 116/116 113/113 115/115
f 117/117 118/118 119/119
f 120/120 117/117 119/119
f 121/121 122/122 123/123
f 124/124 121/121 123/123
f 125/125 126/126 127/127
f 128/128 125/125 127/127
f 129/129 130/130 131/131
f 132/132 129/129 131/131
f 133/133 134/134 135/135
f 136/136 133/133 135/135
f 137/137 138/138 139/139
f 140/140 137/137 139/139
f 141/141 142/142 143/143
f 144/144 141/141 143/143
f 145/145 146/146 147/147
f 148/148 145/145 147/147
f 149/149 150/150 151/151
f 152/152 149/149 151/151
f 153/153 154/154 155/155
f 156/156 153/153 155/155
f 157/157 158/158 159/159
f 160/160 157/157 159/159
f 161/161 162/162 163/163
f 164/164 161/161 163/163
f 165/165 166/166 167/167
f 168/168 165/165 167/167
f 169/169 170/170 171/171
f 172/172 169/169 171/171
f 173/173 174/174 175/175
f 176/176 173/173 175/175
f 177/177 178/178 179/179
f 180/180 177/177 179/179
f 181/181 182/182 183/183
f 184/184 181/181 183/183
f 185/185 186/186 187/187
f 188/188 185/185 187/187
f 189/189 190/190 191/191
f 192/192 189/189 191/191
f 193/193 194/194 195/195
f 196/196 193/193 195/195
f 197/197 198/198 199/199
f 200/200 197/197 199/199
f 201/201 202/202 203/203
f 204/204 201/201 203/203
f 205/205 206/206 207/207
f 208/208 205/205 207/207
f 209/209 210/210 211/211
f 212/212 209/209 211/211
f 213/213 214/214 215/215
f 216/216 213/213 215/215
f 217/217 218/218 219/219
f 220/220 217/217 219/219
f 221/221 222/222 223/223
f 224/224 221/221 223/223
f 225/225 226/226 227/227
f 228/228 225/225 227/227
f 229/229 230/230 231/231
f 232/232 229/229 231/231
f 233/233 234/234 235/235
f 236/236 233/233 235/235
f 237/237 238/238 239/239
f 240/240 237/237 239/239
f 241/241 242/242 243/243
f 244/244 241/241 243/243
f 245/245 246/246 247/247
f 248/248 245/245 247/247
f 249/249 250/250 251/251
f 252/252 249/249 251/251
f 253/253 254/254 255/255
f 256/256 253/253 255/255
f 257/257 258/258 259/259
f 260/260 257/257 259/259
f 261/261 262/262 263/263
f 264/264 261/261 263/263
g material_1\nusemtl material_1\nv 2.05 6.91875 -1.05
vt -0 0.375
v 2.05 -0.168754 -1.04999
vt 0 0
v 2.05 -0.16875 1.05001
vt 0.0625 0
v 2.05 6.91875 1.05
vt 0.0625 0.375
v -0.05 6.91875 -1.05
vt 0.1875 0.375
v 2.05 6.91875 -1.05
vt 0.25 0.375
v 2.05 -0.168754 -1.04999
vt 0.25 0
v -0.0500002 -0.168754 -1.04999
vt 0.1875 0
v -0.0499998 6.91875 1.05
vt 0.0625 0.375
v -0.05 6.91875 -1.05
vt 0.125 0.375
v -0.0500002 -0.168754 -1.04999
vt 0.125 0
v -0.05 -0.16875 1.05001
vt 0.0625 0
v 2.05 6.91875 1.05
vt 0.0625 0.375
v -0.0499998 6.91875 1.05
vt 0.125 0.375
v -0.05 -0.16875 1.05001
vt 0.125 0
v 2.05 -0.16875 1.05001
vt 0.0625 0
v 2.05 6.91875 1.05
vt 0.125 0.6875
v 2.05 6.91875 -1.05
vt 0.125 0.75
v -0.05 6.91875 -1.05
vt 0.0625 0.75
v -0.0499998 6.91875 1.05
vt 0.0625 0.6875
v -0.05 6.91875 -1.05
vt 0.1875 0.375
v -0.0500002 -0.168754 -1.04999
vt 0.1875 0
v 2.05 -0.168754 -1.04999
vt 0.25 0
v 2.05 6.91875 -1.05
vt 0.25 0.375
v -0.0499998 6.91875 1.05
vt 0.0625 0.375
v -0.05 -0.16875 1.05001
vt 0.0625 0
v -0.0500002 -0.168754 -1.04999
vt 0.125 0
v -0.05 6.91875 -1.05
vt 0.125 0.375
v 2.05 6.91875 1.05
vt 0.0625 0.375
v 2.05 -0.16875 1.05001
vt 0.0625 0
v -0.05 -0.16875 1.05001
vt 0.125 0
v -0.0499998 6.91875 1.05
vt 0.125 0.375
v 2.05 6.91875 1.05
vt 0.125 0.6875
v -0.0499998 6.91875 1.05
vt 0.0625 0.6875
v -0.05 6.91875 -1.05
vt 0.0625 0.75
v 2.05 6.91875 -1.05
vt 0.125 0.75
v 2.05 6.91875 -1.05
vt 0 0.375
v 2.05 6.91875 1.05
vt 0.0625 0.375
v 2.05 -0.16875 1.05001
vt 0.0625 0
v 2.05 -0.168754 -1.04999
vt 0 0
v 0.0499999 6.91875 -1.05
vt 0.0625 0.75
v -2.05 6.91875 -1.05
vt 0.125 0.75
v -2.05 6.91875 1.05
vt 0.125 0.6875
v 0.0500001 6.91875 1.05
vt 0.0625 0.6875
v 0.0499999 -0.16875 1.05001
vt 0.0625 0
v -2.05 -0.16875 1.05001
vt 0 0
v -2.05 6.91875 1.05
vt 0 0.375
v 0.0500001 6.91875 1.05
vt 0.0625 0.375
v -2.05 -0.168754 -1.04999
vt 0.25 0
v -2.05 6.91875 -1.05
vt 0.25 0.375
v 0.0499999 6.91875 -1.05
vt 0.1875 0.375
v 0.0499997 -0.168754 -1.04999
vt 0.1875 0
v -2.05 -0.16875 1.05001
vt 0.0625 0
v -2.05 -0.168754 -1.04999
vt 0 0
v -2.05 6.91875 -1.05
vt 0 0.375
v -2.05 6.91875 1.05
vt 0.0625 0.375
v 0.0499997 -0.168754 -1.04999
vt 0.1875 0
v 0.0499999 6.91875 -1.05
vt 0.1875 0.375
v 0.0500001 6.91875 1.05
vt 0.125 0.375
v 0.0499999 -0.16875 1.05001
vt 0.125 0
v 0.0499999 6.91875 -1.05
vt 0.0625 0.75
v 0.0500001 6.91875 1.05
vt 0.0625 0.6875
v -2.05 6.91875 1.05
vt 0.125 0.6875
v -2.05 6.91875 -1.05
vt 0.125 0.75
v 0.0499999 -0.16875 1.05001
vt 0.125 0
v 0.0500001 6.91875 1.05
vt 0.125 0.375
v -2.05 6.91875 1.05
vt 0.0625 0.375
v -2.05 -0.16875 1.05001
vt 0.0625 0
v -2.05 -0.16875 1.05001
vt 0.0625 0
v -2.05 6.91875 1.05
vt 0.0625 0.375
v -2.05 6.91875 -1.05
vt -0 0.375
v -2.05 -0.168754 -1.04999
vt 0 0
v 0.0499997 -0.168754 -1.04999
vt 0.1875 0
v 0.0499999 -0.16875 1.05001
vt 0.125 0
v 0.0500001 6.91875 1.05
vt 0.125 0.375
v 0.0499999 6.91875 -1.05
vt 0.1875 0.375
v -2.05 -0.168754 -1.04999
vt 0.25 0
v 0.0499997 -0.168754 -1.04999
vt 0.1875 0
v 0.0499999 6.91875 -1.05
vt 0.1875 0.375
v -2.05 6.91875 -1.05
vt 0.25 0.375
v -2.1 6.49038 -1.0313
vt 0.4375 0.75
v 2.1 6.49038 -1.0313
vt 0.5625 0.75
v 2.1 6.67341 1.06071
vt 0.5625 0.6875
v -2.1 6.67341 1.06071
vt 0.4375 0.6875
v -2.1 6.49038 -1.0313
vt 0.5 0
v -2.1 13.5509 -1.64901
vt 0.5 0.375
v 2.1 13.5509 -1.64901
vt 0.625 0.375
v 2.1 6.49038 -1.0313
vt 0.625 0
v -2.1 6.67341 1.06071
vt 0.25 0
v -2.1 13.7339 0.442996
vt 0.25 0.375
v -2.1 13.5509 -1.64901
vt 0.3125 0.375
v -2.1 6.49038 -1.0313
vt 0.3125 0
v 2.1 6.67341 1.06071
vt 0.3125 0
v 2.1 13.7339 0.442996
vt 0.3125 0.375
v -2.1 13.7339 0.442996
vt 0.4375 0.375
v -2.1 6.67341 1.06071
vt 0.4375 0
v 2.1 6.67341 1.06071
vt 0.5 0
v 2.1 6.49038 -1.0313
vt 0.4375 0
v 2.1 13.5509 -1.64901
vt 0.4375 0.375
v 2.1 13.7339 0.442996
vt 0.5 0.375
v -2.1 13.7339 0.442996
vt 0.4375 0.6875
v 2.1 13.7339 0.442996
vt 0.3125 0.6875
v 2.1 13.5509 -1.64901
vt 0.3125 0.75
v -2.1 13.5509 -1.64901
vt 0.4375 0.75
v -2.1 6.49038 -1.0313
vt 0.4375 0.75
v -2.1 6.67341 1.06071
vt 0.4375 0.6875
v 2.1 6.67341 1.06071
vt 0.5625 0.6875
v 2.1 6.49038 -1.0313
vt 0.5625 0.75
v -2.1 6.49038 -1.0313
vt 0.5 0
v 2.1 6.49038 -1.0313
vt 0.625 0
v 2.1 13.5509 -1.64901
vt 0.625 0.375
v -2.1 13.5509 -1.64901
vt 0.5 0.375
v -2.1 6.67341 1.06071
vt 0.25 0
v -2.1 6.49038 -1.0313
vt 0.3125 0
v -2.1 13.5509 -1.64901
vt 0.3125 0.375
v -2.1 13.7339 0.442996
vt 0.25 0.375
v 2.1 6.67341 1.06071
vt 0.3125 0
v -2.1 6.67341 1.06071
vt 0.4375 0
v -2.1 13.7339 0.442996
vt 0.4375 0.375
v 2.1 13.7339 0.442996
vt 0.3125 0.375
v 2.1 6.67341 1.06071
vt 0.5 0
v 2.1 13.7339 0.442996
vt 0.5 0.375
v 2.1 13.5509 -1.64901
vt 0.4375 0.375
v 2.1 6.49038 -1.0313
vt 0.4375 0
v -2.1 13.7339 0.442996
vt 0.4375 0.6875
v -2.1 13.5509 -1.64901
vt 0.4375 0.75
v 2.1 13.5509 -1.64901
vt 0.3125 0.75
v 2.1 13.7339 0.442996
vt 0.3125 0.6875
f 265/265 266/266 267/267
f 268/268 265/265 267/267
f 269/269 270/270 271/271
f 272/272 269/269 271/271
f 273/273 274/274 275/275
f 276/276 273/273 275/275
f 277/277 278/278 279/279
f 280/280 277/277 279/279
f 281/281 282/282 283/283
f 284/284 281/281 283/283
f 285/285 286/286 287/287
f 288/288 285/285 287/287
f 289/289 290/290 291/291
f 292/292 289/289 291/291
f 293/293 294/294 295/295
f 296/296 293/293 295/295
f 297/297 298/298 299/299
f 300/300 297/297 299/299
f 301/301 302/302 303/303
f 304/304 301/301 303/303
f 305/305 306/306 307/307
f 308/308 305/305 307/307
f 309/309 310/310 311/311
f 312/312 309/309 311/311
f 313/313 314/314 315/315
f 316/316 313/313 315/315
f 317/317 318/318 319/319
f 320/320 317/317 319/319
f 321/321 322/322 323/323
f 324/324 321/321 323/323
f 325/325 326/326 327/327
f 328/328 325/325 327/327
f 329/329 330/330 331/331
f 332/332 329/329 331/331
f 333/333 334/334 335/335
f 336/336 333/333 335/335
f 337/337 338/338 339/339
f 340/340 337/337 339/339
f 341/341 342/342 343/343
f 344/344 341/341 343/343
f 345/345 346/346 347/347
f 348/348 345/345 347/347
f 349/349 350/350 351/351
f 352/352 349/349 351/351
f 353/353 354/354 355/355
f 356/356 353/353 355/355
f 357/357 358/358 359/359
f 360/360 357/357 359/359
f 361/361 362/362 363/363
f 364/364 361/361 363/363
f 365/365 366/366 367/367
f 368/368 365/365 367/367
f 369/369 370/370 371/371
f 372/372 369/369 371/371
f 373/373 374/374 375/375
f 376/376 373/373 375/375
f 377/377 378/378 379/379
f 380/380 377/377 379/379
f 381/381 382/382 383/383
f 384/384 381/381 383/383
f 385/385 386/386 387/387
f 388/388 385/385 387/387
f 389/389 390/390 391/391
f 392/392 389/389 391/391
g material_2\nusemtl material_2\nv -4.58326 6.67871 0.54608
vt 0.625 0
v -3.97361 13.7399 0.514266
vt 0.625 0.375
v -3.91677 13.7255 -1.58492
vt 0.6875 0.375
v -4.52642 6.66434 -1.5531
vt 0.6875 0
v -3.97361 13.7399 0.514266
vt 0.6875 0.375
v -1.88217 13.5596 0.572133
vt 0.75 0.375
v -1.82532 13.5452 -1.52705
vt 0.75 0.5
v -3.91677 13.7255 -1.58492
vt 0.6875 0.5
v -3.97361 13.7399 0.514266
vt 0.6875 0.375
v -4.58326 6.67871 0.54608
vt 0.6875 0
v -2.49182 6.4984 0.603947
vt 0.75 0
v -1.88217 13.5596 0.572133
vt 0.75 0.375
v -4.52642 6.66434 -1.5531
vt 0.875 0
v -3.91677 13.7255 -1.58492
vt 0.875 0.375
v -1.82532 13.5452 -1.52705
vt 0.8125 0.375
v -2.43497 6.48403 -1.49523
vt 0.8125 0
v -2.43497 6.48403 -1.49523
vt 0.8125 0
v -1.82532 13.5452 -1.52705
vt 0.8125 0.375
v -1.88217 13.5596 0.572133
vt 0.75 0.375
v -2.49182 6.4984 0.603947
vt 0.75 0
v -4.58326 6.67871 0.54608
vt 0.625 0
v -4.52642 6.66434 -1.5531
vt 0.6875 0
v -3.91677 13.7255 -1.58492
vt 0.6875 0.375
v -3.97361 13.7399 0.514266
vt 0.625 0.375
v -3.97361 13.7399 0.514266
vt 0.6875 0.375
v -3.91677 13.7255 -1.58492
vt 0.6875 0.5
v -1.82532 13.5452 -1.52705
vt 0.75 0.5
v -1.88217 13.5596 0.572133
vt 0.75 0.375
v -3.97361 13.7399 0.514266
vt 0.6875 0.375
v -1.88217 13.5596 0.572133
vt 0.75 0.375
v -2.49182 6.4984 0.603947
vt 0.75 0
v -4.58326 6.67871 0.54608
vt 0.6875 0
v -4.52642 6.66434 -1.5531
vt 0.875 0
v -2.43497 6.48403 -1.49523
vt 0.8125 0
v -1.82532 13.5452 -1.52705
vt 0.8125 0.375
v -3.91677 13.7255 -1.58492
vt 0.875 0.375
v -2.43497 6.48403 -1.49523
vt 0.8125 0
v -2.49182 6.4984 0.603947
vt 0.75 0
v -1.88217 13.5596 0.572133
vt 0.75 0.375
v -1.82532 13.5452 -1.52705
vt 0.8125 0.375
v -2.40478 13.3726 1.48853
vt 0.25 0.5
v 2.57518 13.3537 1.27193
vt 0.125 0.5
v 2.5904 17.3414 1.27471
vt 0.125 0.75
v -2.38955 17.3603 1.49132
vt 0.25 0.75
v -2.56282 17.3637 -2.49267
vt 0.25 1
v -2.38955 17.3603 1.49132
vt 0.25 0.75
v 2.5904 17.3414 1.27471
vt 0.125 0.75
v 2.41713 17.3449 -2.70928
vt 0.125 1
v 2.41713 17.3449 -2.70928
vt -0 0.75
v 2.5904 17.3414 1.27471
vt 0.125 0.75
v 2.57518 13.3537 1.27193
vt 0.125 0.5
v 2.40191 13.3571 -2.71206
vt 0 0.5
v -2.57805 13.376 -2.49546
vt 0.375 0.5
v -2.40478 13.3726 1.48853
vt 0.25 0.5
v -2.38955 17.3603 1.49132
vt 0.25 0.75
v -2.56282 17.3637 -2.49267
vt 0.375 0.75
v 2.40191 13.3571 -2.71206
vt 0.4375 1
v 2.57518 13.3537 1.27193
vt 0.4375 0.875
v -2.40478 13.3726 1.48853
vt 0.28125 0.875
v -2.57805 13.376 -2.49546
vt 0.28125 1
v -2.56282 17.3637 -2.49267
vt 0.375 0.75
v 2.41713 17.3449 -2.70928
vt 0.5 0.75
v 2.40191 13.3571 -2.71206
vt 0.5 0.5
v -2.57805 13.376 -2.49546
vt 0.375 0.5
v -2.40478 13.3726 1.48853
vt 0.25 0.5
v -2.38955 17.3603 1.49132
vt 0.25 0.75
v 2.5904 17.3414 1.27471
vt 0.125 0.75
v 2.57518 13.3537 1.27193
vt 0.125 0.5
v -2.56282 17.3637 -2.49267
vt 0.25 1
v 2.41713 17.3449 -2.70928
vt 0.125 1
v 2.5904 17.3414 1.27471
vt 0.125 0.75
v -2.38955 17.3603 1.49132
vt 0.25 0.75
v 2.41713 17.3449 -2.70928
vt -0 0.75
v 2.40191 13.3571 -2.71206
vt 0 0.5
v 2.57518 13.3537 1.27193
vt 0.125 0.5
v 2.5904 17.3414 1.27471
vt 0.125 0.75
v -2.57805 13.376 -2.49546
vt 0.375 0.5
v -2.56282 17.3637 -2.49267
vt 0.375 0.75
v -2.38955 17.3603 1.49132
vt 0.25 0.75
v -2.40478 13.3726 1.48853
vt 0.25 0.5
v 2.40191 13.3571 -2.71206
vt 0.4375 1
v -2.57805 13.376 -2.49546
vt 0.28125 1
v -2.40478 13.3726 1.48853
vt 0.28125 0.875
v 2.57518 13.3537 1.27193
vt 0.4375 0.875
v -2.56282 17.3637 -2.49267
vt 0.375 0.75
v -2.57805 13.376 -2.49546
vt 0.375 0.5
v 2.40191 13.3571 -2.71206
vt 0.5 0.5
v 2.41713 17.3449 -2.70928
vt 0.5 0.75
v 4.52642 6.66434 -1.5531
vt 0.875 0
v 2.43497 6.48403 -1.49523
vt 0.8125 0
v 1.82532 13.5452 -1.52705
vt 0.8125 0.375
v 3.91677 13.7255 -1.58492
vt 0.875 0.375
v 3.97361 13.7399 0.514265
vt 0.6875 0.375
v 1.88217 13.5596 0.572133
vt 0.75 0.375
v 2.49182 6.4984 0.603947
vt 0.75 0
v 4.58326 6.67871 0.546079
vt 0.6875 0
v 3.97361 13.7399 0.514265
vt 0.6875 0.375
v 3.91677 13.7255 -1.58492
vt 0.6875 0.5
v 1.82532 13.5452 -1.52705
vt 0.75 0.5
v 1.88217 13.5596 0.572133
vt 0.75 0.375
v 1.88217 13.5596 0.572133
vt 0.75 0.375
v 1.82532 13.5452 -1.52705
vt 0.8125 0.375
v 2.43497 6.48403 -1.49523
vt 0.8125 0
v 2.49182 6.4984 0.603947
vt 0.75 0
v 4.58326 6.67871 0.546079
vt 0.6875 0
v 4.52642 6.66434 -1.5531
vt 0.625 0
v 3.91677 13.7255 -1.58492
vt 0.625 0.375
v 3.97361 13.7399 0.514265
vt 0.6875 0.375
v 4.52642 6.66434 -1.5531
vt 0.875 0
v 3.91677 13.7255 -1.58492
vt 0.875 0.375
v 1.82532 13.5452 -1.52705
vt 0.8125 0.375
v 2.43497 6.48403 -1.49523
vt 0.8125 0
v 3.97361 13.7399 0.514265
vt 0.6875 0.375
v 4.58326 6.67871 0.546079
vt 0.6875 0
v 2.49182 6.4984 0.603947
vt 0.75 0
v 1.88217 13.5596 0.572133
vt 0.75 0.375
v 3.97361 13.7399 0.514265
vt 0.6875 0.375
v 1.88217 13.5596 0.572133
vt 0.75 0.375
v 1.82532 13.5452 -1.52705
vt 0.75 0.5
v 3.91677 13.7255 -1.58492
vt 0.6875 0.5
v 1.88217 13.5596 0.572133
vt 0.75 0.375
v 2.49182 6.4984 0.603947
vt 0.75 0
v 2.43497 6.48403 -1.49523
vt 0.8125 0
v 1.82532 13.5452 -1.52705
vt 0.8125 0.375
v 4.58326 6.67871 0.546079
vt 0.6875 0
v 3.97361 13.7399 0.514265
vt 0.6875 0.375
v 3.91677 13.7255 -1.58492
vt 0.625 0.375
v 4.52642 6.66434 -1.5531
vt 0.625 0
v -2.155 -0.168754 -1.15499
vt 0.125 0.5
v 0.155 -0.168754 -1.15499
vt 0.1875 0.5
v 0.155 -0.16875 1.15501
vt 0.1875 0.375
v -2.155 -0.16875 1.15501
vt 0.125 0.375
v -2.155 -0.168754 -1.15499
vt 0.25 0
v -2.155 3.375 -1.15499
vt 0.25 0.1875
v 0.155 3.375 -1.15499
vt 0.1875 0.1875
v 0.155 -0.168754 -1.15499
vt 0.1875 0
v 0.155 -0.16875 1.15501
vt 0.0625 0
v 0.155 3.375 1.15501
vt 0.0625 0.1875
v -2.155 3.375 1.15501
vt 0 0.1875
v -2.155 -0.16875 1.15501
vt 0 0
v 0.155 -0.168754 -1.15499
vt 0.1875 0
v 0.155 3.375 -1.15499
vt 0.1875 0.1875
v 0.155 3.375 1.15501
vt 0.125 0.1875
v 0.155 -0.16875 1.15501
vt 0.125 0
v -2.155 -0.16875 1.15501
vt 0.0625 0
v -2.155 3.375 1.15501
vt 0.0625 0.1875
v -2.155 3.375 -1.15499
vt 0 0.1875
v -2.155 -0.168754 -1.15499
vt 0 0
v -2.155 -0.168754 -1.15499
vt 0.125 0.5
v -2.155 -0.16875 1.15501
vt 0.125 0.375
v 0.155 -0.16875 1.15501
vt 0.1875 0.375
v 0.155 -0.168754 -1.15499
vt 0.1875 0.5
v -2.155 -0.168754 -1.15499
vt 0.25 0
v 0.155 -0.168754 -1.15499
vt 0.1875 0
v 0.155 3.375 -1.15499
vt 0.1875 0.1875
v -2.155 3.375 -1.15499
vt 0.25 0.1875
v 0.155 -0.16875 1.15501
vt 0.0625 0
v -2.155 -0.16875 1.15501
vt 0 0
v -2.155 3.375 1.15501
vt 0 0.1875
v 0.155 3.375 1.15501
vt 0.0625 0.1875
v 0.155 -0.168754 -1.15499
vt 0.1875 0
v 0.155 -0.16875 1.15501
vt 0.125 0
v 0.155 3.375 1.15501
vt 0.125 0.1875
v 0.155 3.375 -1.15499
vt 0.1875 0.1875
v -2.155 -0.16875 1.15501
vt 0.0625 0
v -2.155 -0.168754 -1.15499
vt 0 0
v -2.155 3.375 -1.15499
vt 0 0.1875
v -2.155 3.375 1.15501
vt 0.0625 0.1875
v -0.155 -0.16875 1.15501
vt 0.1875 0.375
v -0.155 -0.168754 -1.15499
vt 0.1875 0.5
v 2.155 -0.168754 -1.15499
vt 0.125 0.5
v 2.155 -0.16875 1.15501
vt 0.125 0.375
v 2.155 3.375 -1.15499
vt 0 0.1875
v 2.155 3.375 1.15501
vt 0.0625 0.1875
v 2.155 -0.16875 1.15501
vt 0.0625 0
v 2.155 -0.168754 -1.15499
vt 0 0
v 2.155 3.375 1.15501
vt 0 0.1875
v -0.155 3.375 1.15501
vt 0.0625 0.1875
v -0.155 -0.16875 1.15501
vt 0.0625 0
v 2.155 -0.16875 1.15501
vt -0 0
v -0.155 3.375 1.15501
vt 0.0625 0.1875
v -0.155 3.375 -1.15499
vt 0.125 0.1875
v -0.155 -0.168754 -1.15499
vt 0.125 0
v -0.155 -0.16875 1.15501
vt 0.0625 0
v -0.155 3.375 -1.15499
vt 0.1875 0.1875
v 2.155 3.375 -1.15499
vt 0.25 0.1875
v 2.155 -0.168754 -1.15499
vt 0.25 0
v -0.155 -0.168754 -1.15499
vt 0.1875 0
v -0.155 -0.16875 1.15501
vt 0.1875 0.375
v 2.155 -0.16875 1.15501
vt 0.125 0.375
v 2.155 -0.168754 -1.15499
vt 0.125 0.5
v -0.155 -0.168754 -1.15499
vt 0.1875 0.5
v 2.155 3.375 -1.15499
vt 0 0.1875
v 2.155 -0.168754 -1.15499
vt 0 0
v 2.155 -0.16875 1.15501
vt 0.0625 0
v 2.155 3.375 1.15501
vt 0.0625 0.1875
v 2.155 3.375 1.15501
vt 0 0.1875
v 2.155 -0.16875 1.15501
vt -0 0
v -0.155 -0.16875 1.15501
vt 0.0625 0
v -0.155 3.375 1.15501
vt 0.0625 0.1875
v -0.155 3.375 1.15501
vt 0.0625 0.1875
v -0.155 -0.16875 1.15501
vt 0.0625 0
v -0.155 -0.168754 -1.15499
vt 0.125 0
v -0.155 3.375 -1.15499
vt 0.125 0.1875
v -0.155 3.375 -1.15499
vt 0.1875 0.1875
v -0.155 -0.168754 -1.15499
vt 0.1875 0
v 2.155 -0.168754 -1.15499
vt 0.25 0
v 2.155 3.375 -1.15499
vt 0.25 0.1875
v -2.31 6.48123 -1.1359
vt 0.53125 1
v 2.31 6.48123 -1.1359
vt 0.65625 1
v 2.31 6.68256 1.16531
vt 0.65625 0.9375
v -2.31 6.68256 1.16531
vt 0.53125 0.9375
v -2.31 6.48123 -1.1359
vt 0.5 0
v -2.31 13.5418 -1.75361
vt 0.5 0.375
v 2.31 13.5418 -1.75361
vt 0.625 0.375
v 2.31 6.48123 -1.1359
vt 0.625 0
v 2.31 6.68256 1.16531
vt 0.3125 0
v 2.31 13.7431 0.547596
vt 0.3125 0.375
v -2.31 13.7431 0.547597
vt 0.4375 0.375
v -2.31 6.68256 1.16531
vt 0.4375 0
v -2.31 13.7431 0.547597
vt 0.671875 0.9375
v 2.31 13.7431 0.547596
vt 0.546875 0.9375
v 2.31 13.5418 -1.75361
vt 0.546875 1
v -2.31 13.5418 -1.75361
vt 0.671875 1
v -2.31 6.48123 -1.1359
vt 0.5 1
v -2.31 6.68256 1.16531
vt 0.5 0.9375
v 2.31 6.68256 1.16531
vt 0.625 0.9375
v 2.31 6.48123 -1.1359
vt 0.625 1
v -2.31 6.48123 -1.1359
vt 0.5 0
v 2.31 6.48123 -1.1359
vt 0.625 0
v 2.31 13.5418 -1.75361
vt 0.625 0.375
v -2.31 13.5418 -1.75361
vt 0.5 0.375
v 2.31 6.68256 1.16531
vt 0.3125 0
v -2.31 6.68256 1.16531
vt 0.4375 0
v -2.31 13.7431 0.547597
vt 0.4375 0.375
v 2.31 13.7431 0.547596
vt 0.3125 0.375
v -2.31 13.7431 0.547597
vt 0.71875 0.8125
v -2.31 13.5418 -1.75361
vt 0.71875 0.875
v 2.31 13.5418 -1.75361
vt 0.59375 0.875
v 2.31 13.7431 0.547596
vt 0.59375 0.8125
f 393/393 394/394 395/395
f 396/396 393/393 395/395
f 397/397 398/398 399/399
f 400/400 397/397 399/399
f 401/401 402/402 403/403
f 404/404 401/401 403/403
f 405/405 406/406 407/407
f 408/408 405/405 407/407
f 409/409 410/410 411/411
f 412/412 409/409 411/411
f 413/413 414/414 415/415
f 416/416 413/413 415/415
f 417/417 418/418 419/419
f 420/420 417/417 419/419
f 421/421 422/422 423/423
f 424/424 421/421 423/423
f 425/425 426/426 427/427
f 428/428 425/425 427/427
f 429/429 430/430 431/431
f 432/432 429/429 431/431
f 433/433 434/434 435/435
f 436/436 433/433 435/435
f 437/437 438/438 439/439
f 440/440 437/437 439/439
f 441/441 442/442 443/443
f 444/444 441/441 443/443
f 445/445 446/446 447/447
f 448/448 445/445 447/447
f 449/449 450/450 451/451
f 452/452 449/449 451/451
f 453/453 454/454 455/455
f 456/456 453/453 455/455
f 457/457 458/458 459/459
f 460/460 457/457 459/459
f 461/461 462/462 463/463
f 464/464 461/461 463/463
f 465/465 466/466 467/467
f 468/468 465/465 467/467
f 469/469 470/470 471/471
f 472/472 469/469 471/471
f 473/473 474/474 475/475
f 476/476 473/473 475/475
f 477/477 478/478 479/479
f 480/480 477/477 479/479
f 481/481 482/482 483/483
f 484/484 481/481 483/483
f 485/485 486/486 487/487
f 488/488 485/485 487/487
f 489/489 490/490 491/491
f 492/492 489/489 491/491
f 493/493 494/494 495/495
f 496/496 493/493 495/495
f 497/497 498/498 499/499
f 500/500 497/497 499/499
f 501/501 502/502 503/503
f 504/504 501/501 503/503
f 505/505 506/506 507/507
f 508/508 505/505 507/507
f 509/509 510/510 511/511
f 512/512 509/509 511/511
f 513/513 514/514 515/515
f 516/516 513/513 515/515
f 517/517 518/518 519/519
f 520/520 517/517 519/519
f 521/521 522/522 523/523
f 524/524 521/521 523/523
f 525/525 526/526 527/527
f 528/528 525/525 527/527
f 529/529 530/530 531/531
f 532/532 529/529 531/531
f 533/533 534/534 535/535
f 536/536 533/533 535/535
f 537/537 538/538 539/539
f 540/540 537/537 539/539
f 541/541 542/542 543/543
f 544/544 541/541 543/543
f 545/545 546/546 547/547
f 548/548 545/545 547/547
f 549/549 550/550 551/551
f 552/552 549/549 551/551
f 553/553 554/554 555/555
f 556/556 553/553 555/555
f 557/557 558/558 559/559
f 560/560 557/557 559/559
f 561/561 562/562 563/563
f 564/564 561/561 563/563
f 565/565 566/566 567/567
f 568/568 565/565 567/567
f 569/569 570/570 571/571
f 572/572 569/569 571/571
f 573/573 574/574 575/575
f 576/576 573/573 575/575
f 577/577 578/578 579/579
f 580/580 577/577 579/579
f 581/581 582/582 583/583
f 584/584 581/581 583/583
f 585/585 586/586 587/587
f 588/588 585/585 587/587
f 589/589 590/590 591/591
f 592/592 589/589 591/591
f 593/593 594/594 595/595
f 596/596 593/593 595/595
f 597/597 598/598 599/599
f 600/600 597/597 599/599
f 601/601 602/602 603/603
f 604/604 601/601 603/603
f 605/605 606/606 607/607
f 608/608 605/605 607/607
f 609/609 610/610 611/611
f 612/612 609/609 611/611
f 613/613 614/614 615/615
f 616/616 613/613 615/615
f 617/617 618/618 619/619
f 620/620 617/617 619/619
f 621/621 622/622 623/623
f 624/624 621/621 623/623
f 625/625 626/626 627/627
f 628/628 625/625 627/627
f 629/629 630/630 631/631
f 632/632 629/629 631/631
